<svg width="19" height="19" viewBox="0 0 19 19" fill="none" xmlns="http://www.w3.org/2000/svg">
<path fill-rule="evenodd" clip-rule="evenodd" d="M14.1235 5.48716C14.2922 5.31852 14.2922 5.04511 14.1235 4.87648C13.9549 4.70784 13.6815 4.70784 13.5128 4.87648L9.5 8.88932L5.48716 4.87648C5.31852 4.70784 5.04511 4.70784 4.87648 4.87648C4.70784 5.04511 4.70784 5.31852 4.87648 5.48716L8.88932 9.5L4.87648 13.5128C4.70784 13.6815 4.70784 13.9549 4.87648 14.1235C5.04511 14.2922 5.31852 14.2922 5.48716 14.1235L9.5 10.1107L13.5128 14.1235C13.6815 14.2922 13.9549 14.2922 14.1235 14.1235C14.2922 13.9549 14.2922 13.6815 14.1235 13.5128L10.1107 9.5L14.1235 5.48716Z" fill="#E1FF67"/>
</svg>
