<svg width="32" height="32" viewBox="0 0 32 32" fill="none" xmlns="http://www.w3.org/2000/svg">
<circle cx="16" cy="16" r="15.5" fill="white" stroke="#132644"/>
<path d="M13.414 18.8283H6.30285C5.78568 20.5091 5.818 23.569 5.89881 24.8889C6.80386 26.5051 10.3163 28.1482 11.9594 28.7677L16.7271 25.2121L13.414 18.8283Z" fill="#132644"/>
<path d="M18.4243 11.1515L14.788 4.52526C15.8223 3.94344 18.7206 2.82829 20.0405 2.34344C22.4971 2.98991 25.0506 4.98318 26.0203 5.899C26.2142 7.32122 25.9395 9.99328 25.7779 11.1515H18.4243Z" fill="#132644"/>
<path d="M8.24251 5.09092L7.59605 2.74749C1.21221 6.14142 0.404127 14.0606 0.72736 13.6566C0.985945 13.3333 2.66675 12.7677 3.47483 12.5253C3.86271 11.103 6.8149 6.97644 8.24251 5.09092Z" fill="#132644"/>
<path d="M24.7274 25.1313L25.7779 28.3636C29.8506 25.4546 31.4614 20.2559 31.7577 18.0202L28.8486 18.3434C28.2668 19.8303 25.8587 23.4882 24.7274 25.1313Z" fill="#132644"/>
<line x1="7.55617" y1="21.2302" x2="2.95031" y2="12.3516" stroke="#132644"/>
<line x1="7.07965" y1="4.83432" x2="17.2615" y2="4.18785" stroke="#132644"/>
<line x1="24.449" y1="8.77996" x2="29.7013" y2="19.4972" stroke="#132644"/>
<line x1="14.3769" y1="25.197" x2="26.1749" y2="25.0354" stroke="#132644"/>
<line x1="11.7602" y1="28.0592" x2="13.3764" y2="31.2916" stroke="#132644"/>
<line x1="19.4614" y1="0.807338" x2="20.6635" y2="3.68615" stroke="#132644"/>
<line x1="3.19813" y1="24.9611" x2="6.80347" y2="24.7133" stroke="#132644"/>
<line x1="23.9462" y1="5.89206" x2="27.5424" y2="5.5029" stroke="#132644"/>
<line x1="12.9872" y1="19.4567" x2="18.8054" y2="9.92138" stroke="#132644"/>
</svg>
