<svg width="32" height="32" viewBox="0 0 32 32" fill="none" xmlns="http://www.w3.org/2000/svg">
<ellipse cx="15.9804" cy="15.9806" rx="15.9804" ry="15.9806" fill="white"/>
<path d="M31.4607 15.9806C31.4607 24.5303 24.5299 31.4612 15.9804 31.4612C7.4308 31.4612 0.5 24.5303 0.5 15.9806C0.5 7.4309 7.4308 0.5 15.9804 0.5C24.5299 0.5 31.4607 7.4309 31.4607 15.9806Z" fill="white" stroke="#132644"/>
<path fill-rule="evenodd" clip-rule="evenodd" d="M15.6217 3.94581C15.3604 2.65171 15.2591 1.32877 15.333 0H16.7067C16.6402 1.19531 16.7123 2.41005 16.9286 3.59563L17.7661 3.3712C18.1081 3.27957 18.4596 3.48251 18.5512 3.82449C18.6429 4.16647 18.4399 4.51799 18.098 4.60963L17.214 4.84647C17.3288 5.26256 17.4623 5.67266 17.615 6.07453C17.7774 6.50206 17.9595 6.92092 18.1603 7.32986L19.0139 6.82736C19.319 6.64775 19.712 6.74948 19.8916 7.05459C20.0712 7.35969 19.9694 7.75263 19.6643 7.93224L18.7756 8.4554C19.2604 9.25678 19.8218 10.0111 20.4526 10.7076L21.2273 9.96717C21.4833 9.72256 21.889 9.73176 22.1337 9.98771C22.3783 10.2437 22.3691 10.6495 22.1131 10.8941L21.3542 11.6194C22.0226 12.2388 22.7463 12.7933 23.5152 13.2766L24.0438 12.3679C24.2218 12.0618 24.6142 11.9581 24.9202 12.1361C25.2263 12.3141 25.33 12.7065 25.152 13.0125L24.6295 13.9108C25.0775 14.1405 25.5379 14.3473 26.0092 14.5303C26.3942 14.6798 26.7839 14.8115 27.1775 14.9257L27.3703 14.1747C27.4583 13.8318 27.8076 13.6251 28.1506 13.7132C28.4935 13.8012 28.7001 14.1505 28.6121 14.4935L28.4239 15.2267C29.5957 15.4544 30.7941 15.5352 32.0002 15.4769L32.0002 16.8506C30.6671 16.915 29.3648 16.8054 28.0882 16.5346L27.8152 17.5981C27.7271 17.941 27.3778 18.1477 27.0349 18.0596C26.6919 17.9716 26.4853 17.6222 26.5733 17.2793L26.8457 16.2182C26.4039 16.0869 25.9651 15.9363 25.529 15.767C24.993 15.5589 24.4699 15.3224 23.9616 15.059L23.5403 15.7832C23.3623 16.0892 22.9699 16.193 22.6639 16.0149C22.3579 15.8369 22.2541 15.4445 22.4321 15.1385L22.8477 14.424C21.9721 13.8771 21.15 13.2456 20.3935 12.5375L19.7959 13.1086C19.5399 13.3532 19.1342 13.344 18.8896 13.0881C18.645 12.8321 18.6541 12.4263 18.9101 12.1817L19.4932 11.6245C18.792 10.8537 18.169 10.0176 17.6323 9.12845L16.9022 9.55828C16.5971 9.73789 16.2041 9.63615 16.0245 9.33105C15.8449 9.02594 15.9467 8.633 16.2518 8.45339L17.0141 8.00463C16.7774 7.53019 16.5639 7.04333 16.3749 6.5457C16.2055 6.09979 16.0553 5.64815 15.9251 5.19186L15.002 5.43921C14.66 5.53084 14.3085 5.3279 14.2168 4.98592C14.1252 4.64393 14.3281 4.29242 14.6701 4.20078L15.6217 3.94581Z" fill="#132644"/>
<path fill-rule="evenodd" clip-rule="evenodd" d="M16.3783 28.0542C16.6396 29.3483 16.7409 30.6712 16.667 32L15.2933 32C15.3598 30.8047 15.2877 29.5899 15.0714 28.4044L14.2339 28.6288C13.8919 28.7204 13.5404 28.5175 13.4488 28.1755C13.3571 27.8335 13.5601 27.482 13.902 27.3904L14.786 27.1535C14.6712 26.7374 14.5377 26.3273 14.385 25.9255C14.2226 25.4979 14.0405 25.0791 13.8397 24.6701L12.9861 25.1726C12.681 25.3523 12.288 25.2505 12.1084 24.9454C11.9288 24.6403 12.0306 24.2474 12.3357 24.0678L13.2244 23.5446C12.7396 22.7432 12.1782 21.9889 11.5474 21.2924L10.7727 22.0328C10.5167 22.2774 10.111 22.2682 9.86635 22.0123C9.62174 21.7563 9.63094 21.3505 9.88689 21.1059L10.6458 20.3806C9.97736 19.7612 9.25373 19.2067 8.48484 18.7234L7.95621 19.6321C7.77819 19.9382 7.38579 20.0419 7.07976 19.8639C6.77373 19.6859 6.66996 19.2935 6.84798 18.9874L7.37052 18.0892C6.92251 17.8595 6.46206 17.6527 5.99085 17.4697C5.60578 17.3202 5.21608 17.1885 4.82251 17.0743L4.62973 17.8253C4.54171 18.1682 4.19235 18.3749 3.84943 18.2868C3.50651 18.1988 3.29987 17.8495 3.3879 17.5065L3.57612 16.7733C2.40425 16.5456 1.2059 16.4648 -0.000223714 16.5231L-0.000204521 15.1494C1.33293 15.085 2.63523 15.1946 3.91185 15.4654L4.18484 14.4019C4.27287 14.059 4.62222 13.8523 4.96514 13.9404C5.30806 14.0284 5.5147 14.3778 5.42667 14.7207L5.1543 15.7818C5.59609 15.9131 6.03493 16.0637 6.47104 16.233C7.00697 16.4411 7.53013 16.6776 8.03844 16.941L8.45967 16.2168C8.63769 15.9108 9.03008 15.807 9.33611 15.9851C9.64214 16.1631 9.74591 16.5555 9.56789 16.8615L9.15226 17.576C10.0279 18.1229 10.85 18.7544 11.6065 19.4625L12.2041 18.8914C12.4601 18.6468 12.8658 18.656 13.1104 18.9119C13.3551 19.1679 13.3459 19.5737 13.0899 19.8183L12.5068 20.3755C13.208 21.1463 13.831 21.9824 14.3677 22.8716L15.0978 22.4417C15.4029 22.2621 15.7959 22.3638 15.9755 22.669C16.1551 22.9741 16.0534 23.367 15.7482 23.5466L14.9859 23.9954C15.2226 24.4698 15.4361 24.9567 15.6251 25.4543C15.7945 25.9002 15.9447 26.3518 16.0749 26.8081L16.998 26.5608C17.34 26.4692 17.6915 26.6721 17.7832 27.0141C17.8748 27.3561 17.6719 27.7076 17.3299 27.7992L16.3783 28.0542Z" fill="#132644"/>
</svg>
