<svg width="20" height="20" viewBox="0 0 20 20" fill="none" xmlns="http://www.w3.org/2000/svg">
<path d="M16.9202 4.51322C16.5204 4.10554 16.0456 3.78215 15.5231 3.5615C15.0006 3.34086 14.4406 3.22729 13.875 3.22729C13.3094 3.22729 12.7494 3.34086 12.2268 3.5615C11.7043 3.78215 11.2296 4.10554 10.8298 4.51322L9.99997 5.35889L9.17017 4.51322C8.36252 3.69013 7.26713 3.22772 6.12495 3.22772C4.98277 3.22772 3.88737 3.69013 3.07973 4.51322C2.27209 5.33631 1.81836 6.45266 1.81836 7.61668C1.81836 8.78071 2.27209 9.89706 3.07973 10.7201L3.90953 11.5658L9.99997 17.7728L16.0904 11.5658L16.9202 10.7201C17.3202 10.3127 17.6376 9.82885 17.8541 9.29635C18.0706 8.76385 18.182 8.19309 18.182 7.61668C18.182 7.04028 18.0706 6.46952 17.8541 5.93702C17.6376 5.40452 17.3202 4.9207 16.9202 4.51322Z" fill="#132644" stroke="#132644" stroke-width="1.5" stroke-linecap="round" stroke-linejoin="round"/>
</svg>
