<svg width="13" height="20" viewBox="0 0 13 20" fill="none" xmlns="http://www.w3.org/2000/svg">
<path d="M9.75403 7.67459C10.902 8.41403 11.7801 9.50501 12.2569 10.7846C12.7338 12.0642 12.7839 13.4637 12.3998 14.7741C12.0157 16.0845 11.218 17.2355 10.1258 18.0552C9.03362 18.8748 7.70558 19.3192 6.34003 19.3219C4.97449 19.3245 3.64472 18.8854 2.54934 18.07C1.45396 17.2546 0.65175 16.1067 0.262522 14.7978C-0.126705 13.4889 -0.0820608 12.0892 0.389789 10.8078C0.861638 9.52637 1.73537 8.43196 2.88049 7.68804L3.76666 9.05212C2.91592 9.6048 2.2668 10.4179 1.91625 11.3699C1.5657 12.3219 1.53253 13.3618 1.8217 14.3342C2.11087 15.3066 2.70685 16.1594 3.52064 16.7652C4.33443 17.3709 5.32235 17.6972 6.33685 17.6952C7.35135 17.6932 8.33799 17.3631 9.1494 16.7541C9.96081 16.1452 10.5535 15.2901 10.8388 14.3165C11.1242 13.343 11.0869 12.3033 10.7327 11.3526C10.3784 10.402 9.7261 9.59148 8.8732 9.04213L9.75403 7.67459Z" fill="#132644"/>
<rect x="-1" y="1" width="5.23157" height="12.4631" rx="2.61579" transform="matrix(-1 0 0 1 7.94336 0.5)" fill="white" stroke="#132644" stroke-width="2"/>
<circle cx="4.71695" cy="4.71695" r="4.21695" transform="matrix(-1 0 0 1 11.0444 8.27722)" fill="#132644" stroke="white"/>
<rect width="1.80789" height="7.23157" rx="0.903947" transform="matrix(-1 0 0 1 7.23145 4.11584)" fill="#132644"/>
</svg>
