<svg width="34" height="34" viewBox="0 0 34 34" fill="none" xmlns="http://www.w3.org/2000/svg">
<rect x="0.5" y="0.5" width="33" height="33" rx="16.5" fill="white" stroke="#586C9D"/>
<path d="M21 13.6666C22.3807 13.6666 23.5 12.5473 23.5 11.1666C23.5 9.78591 22.3807 8.66663 21 8.66663C19.6193 8.66663 18.5 9.78591 18.5 11.1666C18.5 12.5473 19.6193 13.6666 21 13.6666Z" stroke="#586C9D" stroke-width="1.5" stroke-linecap="round" stroke-linejoin="round"/>
<path d="M11 19.5C12.3807 19.5 13.5 18.3807 13.5 17C13.5 15.6193 12.3807 14.5 11 14.5C9.61929 14.5 8.5 15.6193 8.5 17C8.5 18.3807 9.61929 19.5 11 19.5Z" stroke="#586C9D" stroke-width="1.5" stroke-linecap="round" stroke-linejoin="round"/>
<path d="M21 25.3334C22.3807 25.3334 23.5 24.2141 23.5 22.8334C23.5 21.4527 22.3807 20.3334 21 20.3334C19.6193 20.3334 18.5 21.4527 18.5 22.8334C18.5 24.2141 19.6193 25.3334 21 25.3334Z" stroke="#586C9D" stroke-width="1.5" stroke-linecap="round" stroke-linejoin="round"/>
<path d="M13.1583 18.2583L18.85 21.575" stroke="#586C9D" stroke-width="1.5" stroke-linecap="round" stroke-linejoin="round"/>
<path d="M18.8417 12.425L13.1583 15.7417" stroke="#586C9D" stroke-width="1.5" stroke-linecap="round" stroke-linejoin="round"/>
</svg>
