<svg width="90" height="90" viewBox="0 0 90 90" fill="none" xmlns="http://www.w3.org/2000/svg">
<circle cx="45" cy="45" r="43.5" stroke="#132644" stroke-width="3"/>
<mask id="path-2-inside-1_776_1889" fill="white">
<path fill-rule="evenodd" clip-rule="evenodd" d="M38.4761 24C36.5934 24 34.9655 25.3129 34.5669 27.153L33.7333 31H26C22.6863 31 20 33.6863 20 37V59C20 62.3137 22.6863 65 26 65H63C66.3137 65 69 62.3137 69 59V37C69 33.6863 66.3137 31 63 31H56.2667L55.4331 27.153C55.0345 25.3129 53.4066 24 51.5239 24H38.4761Z"/>
</mask>
<path d="M34.5669 27.153L37.4988 27.7882V27.7882L34.5669 27.153ZM33.7333 31V34H36.1529L36.6653 31.6353L33.7333 31ZM56.2667 31L53.3347 31.6353L53.8471 34H56.2667V31ZM55.4331 27.153L58.3651 26.5177V26.5177L55.4331 27.153ZM37.4988 27.7882C37.5985 27.3282 38.0055 27 38.4761 27V21C35.1814 21 32.3326 23.2976 31.6349 26.5177L37.4988 27.7882ZM36.6653 31.6353L37.4988 27.7882L31.6349 26.5177L30.8014 30.3647L36.6653 31.6353ZM26 34H33.7333V28H26V34ZM23 37C23 35.3431 24.3431 34 26 34V28C21.0294 28 17 32.0294 17 37H23ZM23 59V37H17V59H23ZM26 62C24.3431 62 23 60.6569 23 59H17C17 63.9706 21.0294 68 26 68V62ZM63 62H26V68H63V62ZM66 59C66 60.6569 64.6569 62 63 62V68C67.9706 68 72 63.9706 72 59H66ZM66 37V59H72V37H66ZM63 34C64.6569 34 66 35.3431 66 37H72C72 32.0294 67.9706 28 63 28V34ZM56.2667 34H63V28H56.2667V34ZM52.5012 27.7882L53.3347 31.6353L59.1986 30.3647L58.3651 26.5177L52.5012 27.7882ZM51.5239 27C51.9945 27 52.4015 27.3282 52.5012 27.7882L58.3651 26.5177C57.6674 23.2977 54.8186 21 51.5239 21V27ZM38.4761 27H51.5239V21H38.4761V27Z" fill="#132644" mask="url(#path-2-inside-1_776_1889)"/>
<circle cx="45" cy="47" r="8.5" stroke="#132644" stroke-width="3"/>
<path d="M59 39H61" stroke="#132644" stroke-width="3" stroke-linecap="round"/>
</svg>
