<svg width="152" height="139" viewBox="0 0 152 139" fill="none" xmlns="http://www.w3.org/2000/svg">
<mask id="path-1-inside-1_65_4586" fill="white">
<path d="M36.1435 47.7065C32.8494 49.2304 29.7463 51.0677 27.0418 53.0955C24.3372 55.1233 22.0934 57.2949 20.4604 59.4652C18.8275 61.6354 17.8429 63.7543 17.5726 65.6802C17.3022 67.6061 17.7524 69.2945 18.8929 70.6328C20.0334 71.971 21.838 72.9281 24.1861 73.4402C26.5341 73.9522 29.3715 74.0074 32.5086 73.602C35.6457 73.1966 39.0102 72.34 42.3771 71.0894C45.7441 69.8388 49.0359 68.223 52.0326 66.3502L41.1818 58.5976L36.1435 47.7065Z"/>
</mask>
<path d="M36.1435 47.7065C32.8494 49.2304 29.7463 51.0677 27.0418 53.0955C24.3372 55.1233 22.0934 57.2949 20.4604 59.4652C18.8275 61.6354 17.8429 63.7543 17.5726 65.6802C17.3022 67.6061 17.7524 69.2945 18.8929 70.6328C20.0334 71.971 21.838 72.9281 24.1861 73.4402C26.5341 73.9522 29.3715 74.0074 32.5086 73.602C35.6457 73.1966 39.0102 72.34 42.3771 71.0894C45.7441 69.8388 49.0359 68.223 52.0326 66.3502L41.1818 58.5976L36.1435 47.7065Z" fill="#ACC839" stroke="#132644" stroke-width="6" mask="url(#path-1-inside-1_65_4586)"/>
<path d="M81.9964 3.01672C55.1076 3.01672 33.2998 21.6468 33.2998 44.6292C33.2998 58.8301 41.6282 71.3641 54.3378 78.8761L50.5095 91.8006C50.3591 92.3062 50.3627 92.8449 50.5197 93.3485C50.6768 93.852 50.9802 94.2978 51.3916 94.6294C51.803 94.961 52.3039 95.1635 52.8309 95.2113C53.3578 95.259 53.8871 95.1498 54.3518 94.8975L72.0304 85.3837C75.3212 85.9544 78.6562 86.2345 81.9964 86.2207C108.892 86.2207 130.7 67.5906 130.7 44.6082C130.7 21.6258 108.892 3.01672 81.9964 3.01672ZM87.1614 72.1244C69.6648 72.1244 55.4715 59.9949 55.4715 45.0407C55.4715 30.0864 69.6578 17.957 87.1614 17.957C104.665 17.957 118.858 30.0795 118.858 45.0407C118.858 60.0019 104.665 72.1244 87.1614 72.1244Z" fill="#132644"/>
<rect x="73" y="51" width="7" height="4" rx="1" fill="#132644"/>
<rect x="101" y="51" width="7" height="4" rx="1" fill="#132644"/>
<path d="M79.7008 47.8515C81.4904 47.8515 82.9412 46.4057 82.9412 44.6222C82.9412 42.8386 81.4904 41.3928 79.7008 41.3928C77.9112 41.3928 76.4604 42.8386 76.4604 44.6222C76.4604 46.4057 77.9112 47.8515 79.7008 47.8515Z" fill="#132644"/>
<path d="M100.459 47.8515C102.248 47.8515 103.699 46.4057 103.699 44.6222C103.699 42.8386 102.248 41.3928 100.459 41.3928C98.669 41.3928 97.2183 42.8386 97.2183 44.6222C97.2183 46.4057 98.669 47.8515 100.459 47.8515Z" fill="#132644"/>
<path d="M123.448 24.2457C126.102 28.7423 128.112 33.9747 128.794 38.9741C128.505 38.8964 128.191 38.8126 127.855 38.7237C125.979 38.228 123.396 37.5719 120.571 36.9309C115.599 35.8022 109.667 34.6687 105.569 34.628C104.262 27.1387 100.345 22.9835 99.0216 22.0532C96.8061 20.4959 95.1208 19.4711 92.1847 18.765C89.3352 18.0797 86.3529 17.9074 83.4248 18.2573C80.4967 18.6073 77.6769 19.473 75.1451 20.8073C72.6131 22.1416 70.4173 23.9193 68.7082 26.0392L68.7031 26.0455L68.6981 26.0519C67.285 27.8439 65.1047 32.3175 66.2826 37.4199C57.7768 38.8826 49.147 42.2924 42.5479 45.3885C39.0131 47.0469 36.0368 48.6269 33.9422 49.7933C33.3491 50.1236 32.8264 50.421 32.3814 50.6777C31.2847 45.5944 31.1734 39.9528 32.2626 35.0344C33.4971 29.4603 36.0856 24.1494 39.8801 19.4429C43.6753 14.7355 48.5944 10.7359 54.3349 7.71074C60.0754 4.68549 66.5043 2.70511 73.2122 1.90347C79.92 1.10184 86.75 1.49774 93.2643 3.06434C99.7787 4.63097 105.825 7.33159 111.022 10.9841C116.218 14.6364 120.445 19.1564 123.448 24.2457Z" fill="#E1FF67" stroke="#132644" stroke-width="3"/>
<path d="M65.2843 37.7208C64.2652 35.5208 66.2746 31.1875 66.7842 29.7208C73.7842 25.2208 103.236 25.6208 105.784 26.7208C108.332 27.8208 108.823 34.1708 106.784 34.7208C90.4769 33.6208 71.2843 36.7208 65.2843 37.7208Z" fill="#E1FF67" stroke="#132644" stroke-width="3"/>
<path d="M24.6885 110.305L22.0433 116.253C19.2022 113.137 10.4009 113.484 9.40514 115.403C5.87821 122.201 27.9215 117.103 25.8641 130.132C24.1644 140.896 7.34777 138.629 0 134.947L2.6452 128.716C4.70252 129.849 19.1657 133.72 17.6346 128.999C16.1651 124.467 -1.46955 128.149 0.881732 114.837C2.4413 106.007 18.8103 107.189 24.6885 110.305Z" fill="#132644"/>
<path d="M36.4129 138V130.136H44.2456C47.63 129.748 54.5151 127.049 54.9792 119.359C55.4434 111.67 48.0168 108.583 44.2456 108H28V114.699H41.6347C42.2149 114.699 46.8564 115.573 46.5663 119.359C46.3343 122.388 43.1819 123.34 41.6347 123.437H28V138H36.4129Z" fill="#132644"/>
<path d="M51.7663 108C55.5376 108.583 62.9642 111.67 62.5 119.359C62.0358 127.049 55.1508 130.112 51.7663 130.5V138L45.2663 138V131L48.2663 130.136C50.933 129.257 56.2663 125.8 56.2663 119C56.2663 112.2 50.6667 108.833 48 108H51.7663Z" fill="#132644"/>
<path d="M96 139V124.302H111.032C112.309 124.106 114.863 122.95 114.863 119.893C114.863 116.836 112.309 115.68 111.032 115.484H96V109.017H113.389C116.042 108.723 123.411 112.25 123.411 119.893C123.411 126.007 119.284 128.908 117.221 129.594L124 139H114.863L109.263 130.769H104.547V139H96Z" fill="#132644"/>
<path d="M125 115.699V109H152V115.699H142.609V139H134.098V115.699H125Z" fill="#132644"/>
<path d="M94 123.5C94 132.06 87.2843 139 79 139C70.7157 139 64 132.06 64 123.5C64 114.94 70.7157 108 79 108C87.2843 108 94 114.94 94 123.5ZM71.1062 123.5C71.1062 128.005 74.6404 131.657 79 131.657C83.3596 131.657 86.8938 128.005 86.8938 123.5C86.8938 118.995 83.3596 115.343 79 115.343C74.6404 115.343 71.1062 118.995 71.1062 123.5Z" fill="#132644"/>
</svg>
