<svg width="28" height="28" viewBox="0 0 28 28" fill="none" xmlns="http://www.w3.org/2000/svg">
<path d="M22.1667 3.5H5.83333C4.54467 3.5 3.5 4.54467 3.5 5.83333V22.1667C3.5 23.4553 4.54467 24.5 5.83333 24.5H22.1667C23.4553 24.5 24.5 23.4553 24.5 22.1667V5.83333C24.5 4.54467 23.4553 3.5 22.1667 3.5Z" stroke="#E1FF67" stroke-width="1.5" stroke-linecap="round" stroke-linejoin="round"/>
<path d="M9.9165 11.6666C10.883 11.6666 11.6665 10.8831 11.6665 9.91663C11.6665 8.95013 10.883 8.16663 9.9165 8.16663C8.95001 8.16663 8.1665 8.95013 8.1665 9.91663C8.1665 10.8831 8.95001 11.6666 9.9165 11.6666Z" stroke="#E1FF67" stroke-width="1.5" stroke-linecap="round" stroke-linejoin="round"/>
<path d="M24.5002 17.5L18.6668 11.6666L5.8335 24.5" stroke="#E1FF67" stroke-width="1.5" stroke-linecap="round" stroke-linejoin="round"/>
</svg>
