<svg width="18" height="20" viewBox="0 0 18 20" fill="none" xmlns="http://www.w3.org/2000/svg">
<path d="M17.9999 10.2069C17.9999 9.60157 17.9463 9.02685 17.8543 8.46747H9.19531V11.9234H14.1532C13.9309 13.0575 13.2796 14.0154 12.3141 14.6667V16.9655H15.2719C17.0037 15.364 17.9999 13.0039 17.9999 10.2069Z" fill="#4285F4"/>
<path d="M9.19517 19.1954C11.6779 19.1954 13.7546 18.3678 15.2718 16.9655L12.3139 14.6667C11.4864 15.2184 10.4366 15.5556 9.19517 15.5556C6.79671 15.5556 4.76606 13.9387 4.03809 11.7548H0.988281V14.1226C2.49786 17.1265 5.60131 19.1954 9.19517 19.1954Z" fill="#34A853"/>
<path d="M4.03831 11.7548C3.84674 11.2031 3.74712 10.6131 3.74712 10C3.74712 9.38702 3.8544 8.79698 4.03831 8.24526V5.87744H0.988505C0.360152 7.11882 0 8.51345 0 10C0 11.4866 0.360152 12.8813 0.988505 14.1226L4.03831 11.7548Z" fill="#FBBC05"/>
<path d="M9.19517 4.44447C10.5515 4.44447 11.7622 4.91191 12.7201 5.82378L15.3408 3.20309C13.7546 1.7165 11.6779 0.804626 9.19517 0.804626C5.60131 0.804626 2.49786 2.87359 0.988281 5.87742L4.03809 8.24524C4.76606 6.06133 6.79671 4.44447 9.19517 4.44447Z" fill="#EA4335"/>
</svg>
