<svg width="24" height="24" viewBox="0 0 24 24" fill="none" xmlns="http://www.w3.org/2000/svg">
<mask id="path-1-inside-1_102_1984" fill="white">
<path d="M4.71914 12.0241C4.04745 12.4081 3.41471 12.8712 2.86323 13.3823C2.31175 13.8934 1.85422 14.4407 1.52124 14.9877C1.18827 15.5347 0.987505 16.0688 0.932383 16.5542C0.877261 17.0396 0.969047 17.4651 1.20161 17.8024C1.43417 18.1397 1.80214 18.381 2.28093 18.51C2.75972 18.6391 3.33829 18.653 3.97797 18.5508C4.61765 18.4486 5.30369 18.2327 5.99024 17.9175C6.67678 17.6023 7.34802 17.1951 7.95906 16.723L5.74651 14.7691L4.71914 12.0241Z"/>
</mask>
<path d="M4.71914 12.0241C4.04745 12.4081 3.41471 12.8712 2.86323 13.3823C2.31175 13.8934 1.85422 14.4407 1.52124 14.9877C1.18827 15.5347 0.987505 16.0688 0.932383 16.5542C0.877261 17.0396 0.969047 17.4651 1.20161 17.8024C1.43417 18.1397 1.80214 18.381 2.28093 18.51C2.75972 18.6391 3.33829 18.653 3.97797 18.5508C4.61765 18.4486 5.30369 18.2327 5.99024 17.9175C6.67678 17.6023 7.34802 17.1951 7.95906 16.723L5.74651 14.7691L4.71914 12.0241Z" fill="white" stroke="white" stroke-width="2" mask="url(#path-1-inside-1_102_1984)"/>
<path d="M14.0689 0.760338C8.58607 0.760338 4.13928 5.45589 4.13928 11.2484C4.13928 14.8277 5.83751 17.9867 8.42909 19.8801L7.64848 23.1376C7.61782 23.265 7.61855 23.4008 7.65057 23.5277C7.68258 23.6547 7.74446 23.767 7.82835 23.8506C7.91224 23.9342 8.01437 23.9852 8.12182 23.9972C8.22927 24.0093 8.3372 23.9817 8.43195 23.9182L12.0368 21.5203C12.7078 21.6641 13.3878 21.7347 14.0689 21.7312C19.5532 21.7312 24 17.0357 24 11.2432C24 5.45062 19.5532 0.760338 14.0689 0.760338ZM15.1221 18.1784C11.5544 18.1784 8.66028 15.1212 8.66028 11.3521C8.66028 7.58304 11.553 4.52593 15.1221 4.52593C18.6912 4.52593 21.5854 7.58129 21.5854 11.3521C21.5854 15.123 18.6912 18.1784 15.1221 18.1784Z" fill="white"/>
<rect x="12.2345" y="12.8541" width="1.42736" height="1.00817" rx="0.504084" fill="white"/>
<rect x="17.944" y="12.8541" width="1.42736" height="1.00817" rx="0.504084" fill="white"/>
<path d="M13.6009 12.0606C13.9658 12.0606 14.2617 11.6962 14.2617 11.2467C14.2617 10.7971 13.9658 10.4327 13.6009 10.4327C13.236 10.4327 12.9402 10.7971 12.9402 11.2467C12.9402 11.6962 13.236 12.0606 13.6009 12.0606Z" fill="white"/>
<path d="M17.8336 12.0606C18.1985 12.0606 18.4943 11.6962 18.4943 11.2467C18.4943 10.7971 18.1985 10.4327 17.8336 10.4327C17.4687 10.4327 17.1729 10.7971 17.1729 11.2467C17.1729 11.6962 17.4687 12.0606 17.8336 12.0606Z" fill="white"/>
<path d="M22.3335 6.13422C22.8407 7.19654 23.2329 8.42567 23.3917 9.61605C23.0182 9.49525 22.5309 9.3438 22.0021 9.19542C21.4231 9.03298 20.7881 8.87248 20.1948 8.76026C19.801 8.68575 19.4075 8.6289 19.0529 8.6112C18.7704 6.78908 17.9933 5.75147 17.6925 5.49019C17.2348 5.09253 16.8635 4.80996 16.2173 4.61788C15.6022 4.43503 14.9571 4.38878 14.3234 4.48238C13.6898 4.57597 13.083 4.80713 12.5416 5.15981C12.0002 5.51244 11.5365 5.97853 11.1787 6.52711L11.1786 6.5271L11.1759 6.53136C10.8819 6.99224 10.4499 8.09045 10.6558 9.34952C8.93524 9.7432 7.21549 10.5891 5.90413 11.3496C5.17757 11.7709 4.56601 12.1722 4.13559 12.4685C4.12396 12.4765 4.11246 12.4844 4.10109 12.4923C3.92072 11.289 3.91578 9.98387 4.12134 8.83657C4.37214 7.43677 4.89713 6.10855 5.66174 4.9363C6.42631 3.76411 7.41335 2.77407 8.55881 2.02792C9.70419 1.28183 10.9833 0.795643 12.3145 0.598996C13.6457 0.402354 15.0014 0.499322 16.2956 0.884034C17.5899 1.26877 18.7956 1.93322 19.8354 2.83661C20.8752 3.74006 21.7264 4.86277 22.3335 6.13422Z" fill="white" stroke="white"/>
<path d="M10.6612 9.50723C10.4534 8.95274 10.8632 7.86056 10.9671 7.4909C12.3944 6.35671 18.3999 6.45751 18.9195 6.73476C19.4391 7.012 19.5391 8.61248 19.1234 8.7511C15.7982 8.47385 11.8847 9.25519 10.6612 9.50723Z" fill="white" stroke="white"/>
</svg>
