<svg width="158" height="160" viewBox="0 0 158 160" fill="none" xmlns="http://www.w3.org/2000/svg">
<path d="M78.6947 38.0955C43.745 38.0955 15.3994 62.3106 15.3994 92.1828C15.3994 110.641 26.2246 126.933 42.7443 136.697L37.7684 153.496C37.573 154.153 37.5776 154.853 37.7817 155.508C37.9858 156.162 38.3802 156.742 38.9149 157.173C39.4497 157.604 40.1007 157.867 40.7857 157.929C41.4706 157.991 42.1586 157.849 42.7625 157.521L65.7409 145.155C70.0184 145.897 74.3531 146.261 78.6947 146.243C113.654 146.243 141.999 122.028 141.999 92.1556C141.999 62.2834 113.654 38.0955 78.6947 38.0955Z" fill="#C4C4C4"/>
<path d="M62.5117 76.8594V96.0339H66.4214V100.734H62.5117V108.262H57.4789V100.734H42.7549V96.0754C45.195 92.8866 47.5936 89.684 49.9505 86.4674C52.3075 83.2509 54.706 80.0482 57.1461 76.8594H62.5117ZM57.4789 96.117V86.4258C57.4789 86.2317 57.4789 85.8851 57.4789 85.386C57.5066 84.8869 57.5343 84.36 57.5621 83.8054L48.4116 96.117H57.4789Z" fill="white"/>
<path d="M90.6164 92.8312C90.6164 95.5763 90.3252 97.961 89.7429 99.9852C89.1606 101.982 88.3426 103.645 87.2889 104.976C86.2629 106.28 85.0429 107.25 83.6287 107.888C82.2145 108.526 80.6756 108.845 79.0118 108.845C77.4036 108.845 75.8923 108.526 74.4782 107.888C73.0917 107.25 71.8717 106.28 70.818 104.976C69.792 103.645 68.9879 101.982 68.4056 99.9852C67.8233 97.961 67.5321 95.5763 67.5321 92.8312C67.5321 90.0583 67.8233 87.6736 68.4056 85.6771C68.9879 83.6529 69.792 81.9892 70.818 80.6859C71.8717 79.355 73.0917 78.3706 74.4782 77.7328C75.8923 77.0951 77.4036 76.7762 79.0118 76.7762C80.6756 76.7762 82.2145 77.0951 83.6287 77.7328C85.0429 78.3706 86.2629 79.355 87.2889 80.6859C88.3426 81.9892 89.1606 83.6529 89.7429 85.6771C90.3252 87.6736 90.6164 90.0583 90.6164 92.8312ZM84.7933 92.8312C84.7933 90.6129 84.6269 88.7828 84.2942 87.3409C83.9892 85.8712 83.5732 84.7205 83.0464 83.8886C82.5195 83.029 81.8956 82.4329 81.1747 82.1001C80.4815 81.7396 79.7605 81.5594 79.0118 81.5594C78.2909 81.5594 77.5838 81.7396 76.8906 82.1001C76.2251 82.4329 75.6289 83.029 75.1021 83.8886C74.5752 84.7205 74.1454 85.8712 73.8127 87.3409C73.5077 88.7828 73.3552 90.6129 73.3552 92.8312C73.3552 95.0217 73.5077 96.838 73.8127 98.2799C74.1454 99.7218 74.5752 100.873 75.1021 101.732C75.6289 102.592 76.2251 103.188 76.8906 103.521C77.5838 103.853 78.2909 104.02 79.0118 104.02C79.7605 104.02 80.4815 103.853 81.1747 103.521C81.8956 103.188 82.5195 102.592 83.0464 101.732C83.5732 100.873 83.9892 99.7218 84.2942 98.2799C84.6269 96.838 84.7933 95.0217 84.7933 92.8312Z" fill="white"/>
<path d="M112.066 76.8594V96.0339H115.976V100.734H112.066V108.262H107.033V100.734H92.3093V96.0754C94.7495 92.8866 97.148 89.684 99.505 86.4674C101.862 83.2509 104.26 80.0482 106.701 76.8594H112.066ZM107.033 96.117V86.4258C107.033 86.2317 107.033 85.8851 107.033 85.386C107.061 84.8869 107.089 84.36 107.117 83.8054L97.966 96.117H107.033Z" fill="white"/>
<path d="M48.0572 56C47.8406 58 48.1222 62 50.9807 62C53.8393 62 54.229 58 53.9042 56" stroke="white" stroke-width="2" stroke-linecap="round"/>
<path d="M36.0572 67C35.8406 69 36.1222 73 38.9807 73C41.8393 73 42.229 69 41.9042 67" stroke="white" stroke-width="2" stroke-linecap="round"/>
<path d="M105.168 28.07C105.168 21.2323 102.365 14.6746 97.3767 9.83956C92.3879 5.00455 85.6217 2.28827 78.5665 2.28827C71.5113 2.28827 64.7451 5.00455 59.7563 9.83956C54.7675 14.6746 51.9648 21.2323 51.9648 28.07L78.5665 28.07H105.168Z" fill="#C4C4C4"/>
<path d="M52.062 28.0172H105.206C105.206 31.2532 102.582 33.8766 99.3463 33.8766H52.062V28.0172Z" fill="#C4C4C4"/>
<ellipse cx="79.0566" cy="3.03019" rx="3.2314" ry="3.03019" fill="#C4C4C4"/>
<path d="M103.65 20.5722C103.934 20.2039 103.768 19.761 103.65 19.4541L105.949 21.8218L105.169 28.2672C105.169 27.7411 104.388 27.2807 104.147 27.2807H97.8621C97.7911 27.2807 97.3655 27.2149 97.2656 26.8861C96.8116 23.3608 100.15 21.6026 101.877 21.1641C102.544 20.9946 103.366 20.9405 103.65 20.5722Z" fill="white"/>
<path d="M34.9469 33.3274L53.5688 27.9496L78.5876 27.7513C71.7858 31.2816 56.5507 38.51 50.0241 39.1807C41.8659 40.019 37.8892 37.3169 34.6328 35.5478C32.5258 34.4031 33.9897 33.5206 34.9469 33.3274Z" fill="#C4C4C4"/>
</svg>
