<svg width="24" height="22" viewBox="0 0 24 22" fill="none" xmlns="http://www.w3.org/2000/svg">
<mask id="path-1-inside-1_42_1940" fill="white">
<path d="M4.71914 10.027C4.04745 10.3452 3.41471 10.7287 2.86323 11.1521C2.31175 11.5754 1.85422 12.0288 1.52124 12.4819C1.18827 12.935 0.987505 13.3773 0.932383 13.7794C0.877261 14.1815 0.969047 14.534 1.20161 14.8134C1.43417 15.0928 1.80214 15.2926 2.28093 15.3995C2.75972 15.5064 3.33829 15.5179 3.97797 15.4333C4.61765 15.3486 5.30369 15.1698 5.99024 14.9087C6.67678 14.6476 7.34802 14.3103 7.95906 13.9193L5.74651 12.3008L4.71914 10.027Z"/>
</mask>
<path d="M4.71914 10.027C4.04745 10.3452 3.41471 10.7287 2.86323 11.1521C2.31175 11.5754 1.85422 12.0288 1.52124 12.4819C1.18827 12.935 0.987505 13.3773 0.932383 13.7794C0.877261 14.1815 0.969047 14.534 1.20161 14.8134C1.43417 15.0928 1.80214 15.2926 2.28093 15.3995C2.75972 15.5064 3.33829 15.5179 3.97797 15.4333C4.61765 15.3486 5.30369 15.1698 5.99024 14.9087C6.67678 14.6476 7.34802 14.3103 7.95906 13.9193L5.74651 12.3008L4.71914 10.027Z" fill="#132644" stroke="#E1FF67" stroke-width="2" mask="url(#path-1-inside-1_42_1940)"/>
<path d="M14.0689 0.696983C8.58607 0.696983 4.13928 4.58643 4.13928 9.38453C4.13928 12.3493 5.83751 14.9661 8.42909 16.5344L7.64848 19.2327C7.61782 19.3382 7.61855 19.4507 7.65057 19.5558C7.68258 19.6609 7.74446 19.754 7.82835 19.8232C7.91224 19.8925 8.01437 19.9347 8.12182 19.9447C8.22927 19.9547 8.3372 19.9319 8.43195 19.8792L12.0368 17.893C12.7078 18.0121 13.3878 18.0706 14.0689 18.0677C19.5532 18.0677 24 14.1783 24 9.38016C24 4.58206 19.5532 0.696983 14.0689 0.696983ZM15.1221 15.1248C11.5544 15.1248 8.66028 12.5925 8.66028 9.47045C8.66028 6.3484 11.553 3.81612 15.1221 3.81612C18.6912 3.81612 21.5854 6.34695 21.5854 9.47045C21.5854 12.5939 18.6912 15.1248 15.1221 15.1248Z" fill="#E1FF67"/>
<rect x="12.2345" y="10.7146" width="1.42736" height="0.835092" rx="0.417546" fill="#E1FF67"/>
<rect x="17.944" y="10.7146" width="1.42736" height="0.835092" rx="0.417546" fill="#E1FF67"/>
<path d="M13.5838 10.5151C13.9488 10.5151 14.2446 10.2132 14.2446 9.84089C14.2446 9.46853 13.9488 9.16668 13.5838 9.16668C13.2189 9.16668 12.9231 9.46853 12.9231 9.84089C12.9231 10.2132 13.2189 10.5151 13.5838 10.5151Z" fill="#E1FF67"/>
<path d="M17.8165 10.5151C18.1814 10.5151 18.4772 10.2132 18.4772 9.84089C18.4772 9.46853 18.1814 9.16668 17.8165 9.16668C17.4516 9.16668 17.1558 9.46853 17.1558 9.84089C17.1558 10.2132 17.4516 10.5151 17.8165 10.5151Z" fill="#E1FF67"/>
<path d="M22.3412 5.65653C22.8379 6.61005 23.2224 7.70844 23.3846 8.7728C23.0108 8.66193 22.5221 8.52263 21.9915 8.38618C21.413 8.23741 20.7791 8.09055 20.1873 7.98793C19.7923 7.91943 19.3995 7.86758 19.0469 7.8517C18.7573 6.18075 17.9787 5.22854 17.6761 4.98755C17.2167 4.62167 16.8469 4.36454 16.2063 4.18998C15.5961 4.0237 14.957 3.9818 14.3294 4.06678C13.7018 4.15176 13.0985 4.36189 12.5581 4.68458C12.0177 5.00729 11.5515 5.43578 11.1901 5.9437L11.19 5.94368L11.1871 5.94797C10.8929 6.37068 10.4594 7.37357 10.6479 8.53136C8.93801 8.89267 7.22779 9.66368 5.92026 10.3588C5.19402 10.7448 4.58265 11.1125 4.15228 11.3841C4.13348 11.396 4.11502 11.4076 4.09691 11.4191C3.921 10.3299 3.91747 9.15089 4.11989 8.11527C4.36854 6.84316 4.88941 5.63383 5.65034 4.56443C6.41132 3.49498 7.39589 2.58868 8.54224 1.90418C9.68864 1.21966 10.9713 0.772219 12.3085 0.591144C13.6458 0.410068 15.0075 0.499456 16.3066 0.853442C17.6057 1.20742 18.8129 1.818 19.8518 2.64535C20.8906 3.47266 21.738 4.49841 22.3412 5.65653Z" fill="#132644" stroke="#E1FF67"/>
<path d="M10.6612 8.71497C10.4534 8.20668 10.8632 7.20552 10.9671 6.86666C12.3944 5.82699 18.3999 5.91939 18.9195 6.17353C19.4391 6.42767 19.5391 7.89477 19.1234 8.02184C15.7982 7.7677 11.8847 8.48393 10.6612 8.71497Z" fill="#132644" stroke="#E1FF67"/>
</svg>
