<svg width="132" height="107" viewBox="0 0 132 107" fill="none" xmlns="http://www.w3.org/2000/svg">
<mask id="path-1-inside-1_65_4544" fill="white">
<path d="M25.8051 53.1931C22.1321 54.8922 18.6722 56.9408 15.6566 59.2018C12.641 61.4628 10.1392 63.8841 8.31842 66.304C6.49763 68.7238 5.39984 71.0864 5.09843 73.2338C4.79701 75.3811 5.29891 77.2638 6.57059 78.7559C7.84227 80.2481 9.85441 81.3153 12.4725 81.8862C15.0906 82.4571 18.2543 82.5186 21.7522 82.0666C25.2501 81.6146 29.0015 80.6594 32.7556 79.265C36.5098 77.8706 40.1802 76.0691 43.5215 73.9808L31.4229 65.3366L25.8051 53.1931Z"/>
</mask>
<path d="M25.8051 53.1931C22.1321 54.8922 18.6722 56.9408 15.6566 59.2018C12.641 61.4628 10.1392 63.8841 8.31842 66.304C6.49763 68.7238 5.39984 71.0864 5.09843 73.2338C4.79701 75.3811 5.29891 77.2638 6.57059 78.7559C7.84227 80.2481 9.85441 81.3153 12.4725 81.8862C15.0906 82.4571 18.2543 82.5186 21.7522 82.0666C25.2501 81.6146 29.0015 80.6594 32.7556 79.265C36.5098 77.8706 40.1802 76.0691 43.5215 73.9808L31.4229 65.3366L25.8051 53.1931Z" fill="#132644" stroke="#E1FF67" stroke-width="6" mask="url(#path-1-inside-1_65_4544)"/>
<path d="M76.9317 3.36371C46.9506 3.36371 22.6348 24.1363 22.6348 49.7617C22.6348 65.5959 31.921 79.5713 46.0922 87.9472L41.8236 102.358C41.656 102.922 41.66 103.522 41.8351 104.084C42.0101 104.645 42.3485 105.143 42.8072 105.512C43.2659 105.882 43.8244 106.108 44.412 106.161C44.9995 106.214 45.5897 106.092 46.1078 105.811L65.8195 95.2032C69.4888 95.8395 73.2073 96.1518 76.9317 96.1365C106.921 96.1365 131.236 75.3639 131.236 49.7384C131.236 24.113 106.921 3.36371 76.9317 3.36371ZM82.6907 80.419C63.1819 80.419 47.3563 66.8946 47.3563 50.2206C47.3563 33.5465 63.1741 20.0222 82.6907 20.0222C102.207 20.0222 118.033 33.5388 118.033 50.2206C118.033 66.9024 102.207 80.419 82.6907 80.419Z" fill="#E1FF67"/>
<rect x="66.8999" y="56.8653" width="7.80503" height="4.46002" rx="1" fill="#E1FF67"/>
<rect x="98.1206" y="56.8653" width="7.80503" height="4.46002" rx="1" fill="#E1FF67"/>
<path d="M74.3723 53.3547C76.3677 53.3547 77.9853 51.7426 77.9853 49.7539C77.9853 47.7653 76.3677 46.1531 74.3723 46.1531C72.3769 46.1531 70.7593 47.7653 70.7593 49.7539C70.7593 51.7426 72.3769 53.3547 74.3723 53.3547Z" fill="#E1FF67"/>
<path d="M97.5164 53.3547C99.5118 53.3547 101.129 51.7426 101.129 49.7539C101.129 47.7653 99.5118 46.1531 97.5164 46.1531C95.5209 46.1531 93.9033 47.7653 93.9033 49.7539C93.9033 51.7426 95.5209 53.3547 97.5164 53.3547Z" fill="#E1FF67"/>
<path d="M123.299 26.9464C126.312 32.052 128.586 38.0105 129.316 43.6902C128.928 43.5854 128.494 43.4692 128.019 43.3438C125.929 42.7916 123.051 42.0605 119.904 41.3463C114.296 40.0733 107.617 38.801 103.07 38.7818C101.644 30.3858 97.261 25.7468 95.8152 24.7305C93.3533 23 91.4947 21.8709 88.2509 21.0908C85.0938 20.3315 81.7892 20.1405 78.5444 20.5283C75.2997 20.9161 72.176 21.8753 69.3724 23.3528C66.5687 24.8303 64.1391 26.7979 62.2492 29.1421L62.2441 29.1484L62.2391 29.1548C60.668 31.1473 58.23 36.1649 59.6207 41.8624C50.1008 43.4719 40.4189 47.2929 33.0193 50.7646C29.0823 52.6116 25.7673 54.3714 23.4346 55.6705C22.681 56.0902 22.0295 56.462 21.4923 56.7734C20.2178 51.0238 20.0726 44.6115 21.3095 39.0262C22.692 32.7838 25.5905 26.838 29.8371 21.5707C34.0846 16.3024 39.5881 11.8282 46.0081 8.44489C52.4283 5.06152 59.6169 2.84733 67.1164 1.95109C74.6158 1.05486 82.2519 1.49744 89.5354 3.24903C96.819 5.00064 103.581 8.02051 109.394 12.1062C115.206 16.1917 119.937 21.2493 123.299 26.9464Z" fill="#132644" stroke="#E1FF67" stroke-width="3"/>
<path d="M58.297 42.0589C57.1607 39.6059 59.4011 34.7742 59.9694 33.1389C67.7744 28.1213 100.613 28.5673 103.455 29.7938C106.296 31.0203 106.842 38.1006 104.57 38.7138C86.3869 37.4873 64.987 40.9439 58.297 42.0589Z" fill="#132644" stroke="#E1FF67" stroke-width="3"/>
</svg>
