<svg width="118" height="96" viewBox="0 0 118 96" fill="none" xmlns="http://www.w3.org/2000/svg">
<mask id="path-1-inside-1_75_1188" fill="white">
<path d="M23.1435 47.7065C19.8494 49.2304 16.7463 51.0677 14.0418 53.0955C11.3372 55.1233 9.09342 57.2949 7.46044 59.4652C5.82745 61.6354 4.84289 63.7543 4.57256 65.6802C4.30223 67.6061 4.75237 69.2945 5.89288 70.6328C7.0334 71.971 8.838 72.9281 11.1861 73.4402C13.5341 73.9522 16.3715 74.0074 19.5086 73.602C22.6457 73.1966 26.0102 72.34 29.3771 71.0894C32.7441 69.8388 36.0359 68.223 39.0326 66.3502L28.1818 58.5976L23.1435 47.7065Z"/>
</mask>
<path d="M23.1435 47.7065C19.8494 49.2304 16.7463 51.0677 14.0418 53.0955C11.3372 55.1233 9.09342 57.2949 7.46044 59.4652C5.82745 61.6354 4.84289 63.7543 4.57256 65.6802C4.30223 67.6061 4.75237 69.2945 5.89288 70.6328C7.0334 71.971 8.838 72.9281 11.1861 73.4402C13.5341 73.9522 16.3715 74.0074 19.5086 73.602C22.6457 73.1966 26.0102 72.34 29.3771 71.0894C32.7441 69.8388 36.0359 68.223 39.0326 66.3502L28.1818 58.5976L23.1435 47.7065Z" fill="white" stroke="#5472A1" stroke-width="6" mask="url(#path-1-inside-1_75_1188)"/>
<path d="M68.9964 3.01672C42.1076 3.01672 20.2998 21.6468 20.2998 44.6292C20.2998 58.8301 28.6282 71.3641 41.3378 78.8761L37.5095 91.8006C37.3591 92.3062 37.3627 92.8449 37.5197 93.3485C37.6768 93.852 37.9802 94.2978 38.3916 94.6294C38.803 94.961 39.3039 95.1635 39.8309 95.2113C40.3578 95.259 40.8871 95.1498 41.3518 94.8975L59.0304 85.3837C62.3212 85.9544 65.6562 86.2345 68.9964 86.2207C95.8923 86.2207 117.7 67.5906 117.7 44.6082C117.7 21.6258 95.8923 3.01672 68.9964 3.01672ZM74.1614 72.1244C56.6648 72.1244 42.4715 59.9949 42.4715 45.0407C42.4715 30.0864 56.6578 17.957 74.1614 17.957C91.6651 17.957 105.858 30.0795 105.858 45.0407C105.858 60.0019 91.6651 72.1244 74.1614 72.1244Z" fill="#5472A1"/>
<rect x="60" y="51" width="7" height="4" rx="1" fill="#5472A1"/>
<rect x="88" y="51" width="7" height="4" rx="1" fill="#5472A1"/>
<path d="M66.7008 47.8515C68.4904 47.8515 69.9412 46.4057 69.9412 44.6222C69.9412 42.8386 68.4904 41.3928 66.7008 41.3928C64.9112 41.3928 63.4604 42.8386 63.4604 44.6222C63.4604 46.4057 64.9112 47.8515 66.7008 47.8515Z" fill="#5472A1"/>
<path d="M87.4586 47.8515C89.2483 47.8515 90.699 46.4057 90.699 44.6222C90.699 42.8386 89.2483 41.3928 87.4586 41.3928C85.669 41.3928 84.2183 42.8386 84.2183 44.6222C84.2183 46.4057 85.669 47.8515 87.4586 47.8515Z" fill="#5472A1"/>
<path d="M110.448 24.2457C113.102 28.7423 115.112 33.9747 115.794 38.9741C115.505 38.8964 115.191 38.8126 114.855 38.7237C112.979 38.228 110.396 37.5719 107.571 36.9309C102.599 35.8022 96.6669 34.6687 92.5694 34.628C91.2616 27.1387 87.3452 22.9835 86.0216 22.0532C83.8061 20.4959 82.1208 19.4711 79.1847 18.765C76.3352 18.0797 73.3529 17.9074 70.4248 18.2573C67.4967 18.6073 64.6769 19.473 62.1451 20.8073C59.6131 22.1416 57.4173 23.9193 55.7082 26.0392L55.7031 26.0455L55.6981 26.0519C54.285 27.8439 52.1047 32.3175 53.2826 37.4199C44.7768 38.8826 36.147 42.2924 29.5479 45.3885C26.0131 47.0469 23.0368 48.6269 20.9422 49.7933C20.3491 50.1236 19.8264 50.421 19.3814 50.6777C18.2847 45.5944 18.1734 39.9528 19.2626 35.0344C20.4971 29.4603 23.0856 24.1494 26.8801 19.4429C30.6753 14.7355 35.5944 10.7359 41.3349 7.71074C47.0754 4.68549 53.5043 2.70511 60.2122 1.90347C66.92 1.10184 73.75 1.49774 80.2643 3.06434C86.7787 4.63097 92.8251 7.33159 98.0216 10.9841C103.218 14.6364 107.445 19.1564 110.448 24.2457Z" fill="white" stroke="#5472A1" stroke-width="3"/>
<path d="M52.2843 37.7208C51.2652 35.5208 53.2746 31.1875 53.7842 29.7208C60.7842 25.2208 90.2362 25.6208 92.7842 26.7208C95.3322 27.8208 95.8226 34.1708 93.7842 34.7208C77.4769 33.6208 58.2843 36.7208 52.2843 37.7208Z" fill="white" stroke="#5472A1" stroke-width="3"/>
</svg>
