<svg width="104" height="22" viewBox="0 0 104 22" fill="none" xmlns="http://www.w3.org/2000/svg">
<path d="M16.8921 1.57691L15.0823 5.64668C13.1383 3.51489 7.11639 3.75213 6.4351 5.06528C4.02193 9.71644 19.1042 6.22807 17.6965 15.1428C16.5335 22.5079 5.02742 20.9567 0 18.4374L1.80987 14.1738C3.21752 14.949 13.1133 17.5981 12.0658 14.3676C11.0603 11.2668 -1.00548 13.7862 0.60329 4.67768C1.67037 -1.36386 12.8702 -0.554871 16.8921 1.57691Z" fill="#E1FF67"/>
<path d="M24.9139 20.5263V15.1456H30.2731C32.5888 14.8799 37.2996 13.0332 37.6172 7.7721C37.9348 2.51099 32.8534 0.398569 30.2731 0H19.1577V4.58355H28.4867C28.8837 4.58355 32.0595 5.1814 31.861 7.7721C31.7022 9.84466 29.5453 10.4957 28.4867 10.5621H19.1577V20.5263H24.9139Z" fill="#E1FF67"/>
<path d="M35.4189 4.17609e-05C37.9992 0.398611 43.0806 2.51103 42.763 7.77214C42.4454 13.0333 37.7346 15.1291 35.4189 15.3948V20.5263L30.9715 20.5264V15.7369L33.0242 15.1457C34.8487 14.5445 38.4978 12.179 38.4978 7.52636C38.4978 2.87373 34.6665 0.570231 32.8419 4.17609e-05H35.4189Z" fill="#E1FF67"/>
<path d="M65.6846 21.2105V11.1543H75.9693C76.8432 11.0202 78.5909 10.2291 78.5909 8.13741C78.5909 6.04571 76.8432 5.25462 75.9693 5.12054H65.6846V0.695796H77.5826C79.3976 0.494671 84.4391 2.90817 84.4391 8.13741C84.4391 12.3208 81.6159 14.3052 80.2042 14.7745L84.8425 21.2105H78.5909L74.7594 15.579H71.5328V21.2105H65.6846Z" fill="#E1FF67"/>
<path d="M85.5264 5.26775V0.684204H104V5.26775H97.5744V21.2105H91.7512V5.26775H85.5264Z" fill="#E1FF67"/>
<path d="M64.3159 10.6053C64.3159 16.4624 59.7209 21.2105 54.0527 21.2105C48.3845 21.2105 43.7896 16.4624 43.7896 10.6053C43.7896 4.74814 48.3845 0 54.0527 0C59.7209 0 64.3159 4.74814 64.3159 10.6053ZM48.6517 10.6053C48.6517 13.6876 51.0698 16.1863 54.0527 16.1863C57.0356 16.1863 59.4537 13.6876 59.4537 10.6053C59.4537 7.52292 57.0356 5.02419 54.0527 5.02419C51.0698 5.02419 48.6517 7.52292 48.6517 10.6053Z" fill="#E1FF67"/>
</svg>
